<svg id="SvgjsSvg1006" width="288" height="288" xmlns="http://www.w3.org/2000/svg" version="1.1" xmlnsXlink="http://www.w3.org/1999/xlink" xmlnsSvgjs="http://svgjs.com/svgjs"><defs id="SvgjsDefs1007"></defs><g id="SvgjsG1008"><svg xmlns="http://www.w3.org/2000/svg" width="288" height="288" enableBackground="new 0 0 512 512" viewBox="0 0 512 512"><path d="M490.667,96c0-17.673-14.327-32-32-32h-80.555C364.632,25.757,328.549,0.13,288,0h-64   c-40.549,0.13-76.632,25.757-90.112,64H53.333c-17.673,0-32,14.327-32,32l0,0c0,17.673,14.327,32,32,32H64v266.667   C64,459.468,116.532,512,181.333,512h149.333C395.468,512,448,459.468,448,394.667V128h10.667   C476.34,128,490.667,113.673,490.667,96z M384,394.667C384,424.122,360.122,448,330.667,448H181.333   C151.878,448,128,424.122,128,394.667V128h256V394.667z" fill="#606060" class="color000 svgShape"></path><path d="M202.667 384c17.673 0 32-14.327 32-32V224c0-17.673-14.327-32-32-32s-32 14.327-32 32v128C170.667 369.673 184.994 384 202.667 384zM309.333 384c17.673 0 32-14.327 32-32V224c0-17.673-14.327-32-32-32s-32 14.327-32 32v128C277.333 369.673 291.66 384 309.333 384z" fill="#606060" class="color000 svgShape"></path></svg></g></svg>